PathFileType	4	(X/Y/Z)	T1_P2_NoVision_NoMovement_2_0-733.trc
DataRate	CameraRate	NumFrames	NumMarkers	Units	OrigDataRate	OrigDataStartFrame	OrigNumFrames
60	60	5	27	m	60	274	733
Frame#	Time	RHip			RKnee			RAnkle			RBigToe			RSmallToe			RHeel			LHip			LKnee			LAnkle			LBigToe			LSmallToe			LHeel			Neck			Head			Nose			RShoulder			RElbow			RWrist			RThumb			RIndex			RPinky			LShoulder			LElbow			LWrist			LThumb			LIndex			LPinky		
		X1	Y1	Z1	X2	Y2	Z2	X3	Y3	Z3	X4	Y4	Z4	X5	Y5	Z5	X6	Y6	Z6	X7	Y7	Z7	X8	Y8	Z8	X9	Y9	Z9	X10	Y10	Z10	X11	Y11	Z11	X12	Y12	Z12	X13	Y13	Z13	X14	Y14	Z14	X15	Y15	Z15	X16	Y16	Z16	X17	Y17	Z17	X18	Y18	Z18	X19	Y19	Z19	X20	Y20	Z20	X21	Y21	Z21	X22	Y22	Z22	X23	Y23	Z23	X24	Y24	Z24	X25	Y25	Z25	X26	Y26	Z26	X27	Y27	Z27
275	4.583333333333333	467.5351821166122	3654.129805385186	544.4197468782573	871.6916626580199	3692.959296513751	555.9068732135632	1241.7251758793022	3756.26789705907	621.0879622041814	1323.5506776231193	3630.7975501025785	571.874794727567	1311.086210179782	3676.2900527164775	520.2150498385669	1275.7971599122184	3742.1663160679773	632.9372471654142	459.51223987596205	3522.9861209708392	731.253792929091	866.4756644514548	3554.881326900311	741.9485958570275	1227.3502225308061	3607.126733181783	727.441576331235	1301.2794169114632	3489.965352416055	674.8442644601527	1264.3076438030046	3437.9657898087025	702.28117497032	1261.9672223283383	3615.735428568572	706.0999504755745	-113.24191612314621	3563.215055333092	643.3465876662806	-367.6404956334629	3486.2236678042377	608.3410485031231	-225.58610874728654	3439.705198523488	573.062240049643	-35.631714279547744	3726.940452833195	529.3916724112144	205.53136886232951	3658.5521789813865	425.3234026355172	359.97662448952417	3475.0909055643756	497.03874282728134	447.3142448328144	3529.447436056935	612.2456676528539	454.45297506740474	3502.6139749324743	609.7961381772296	487.57934484562236	3500.182969854226	596.3905916920806	-25.446843602437962	3506.841867788536	784.3058448912741	219.6091782382093	3410.8212512270584	756.6192617414908	360.41441975421907	3402.5366556315253	585.9532936057593	430.1991433994566	3445.4228200675575	506.25052079736815	445.25861879717706	3448.3018997507065	503.8678295920186	467.42250014479436	3424.4217601508585	561.3752520166676
276	4.6	458.617519655176	3634.166704248604	530.4107253125384	861.2648163903658	3672.939013601042	546.4255782656668	1244.3304123518892	3749.876894474382	618.0501030558206	1323.5780117197605	3630.759080994614	571.9346411858745	1304.541664032757	3672.099412685032	519.520690531687	1275.6825293990196	3741.556113084726	632.6818555285735	453.9989105785818	3519.254135970554	729.8148142433828	854.5799181375774	3546.278861846273	739.6219057785898	1227.021992542	3603.8363501461145	731.3388598612937	1307.0246537479961	3491.7075179539816	676.4698661621098	1264.4363455978462	3437.9976642191536	702.4240025873293	1264.598948847024	3608.1785940866657	707.2954228951904	-113.23016298256786	3563.414169468366	643.4212435381203	-367.59783115487437	3486.2390727468573	608.3265861802797	-225.5417525358964	3439.5346873160174	573.0349918293972	-35.62348107358478	3726.8387700478047	529.4676000126672	205.57390086139497	3658.744208870119	425.4144979166389	359.9344740689157	3475.142411099679	497.02064534065295	447.22446127389634	3529.5140840131453	612.2116866838595	454.3772542281371	3502.832844358559	609.8160810708014	487.4923797243367	3500.6396673571207	596.4886011035287	-25.433717896110775	3507.098118159709	784.4415561408979	217.4079635983315	3393.3211025249643	747.1397274165456	360.3924369791683	3402.5200774850696	585.9559423096483	430.10186947962137	3444.885210782506	506.1542775978408	445.22415992662064	3447.996408346456	503.8498717116537	467.35626035005004	3422.606637143779	566.1017438663777
277	4.616666666666666	468.0886507200166	3632.630156053207	528.8951078554207	864.2561450305525	3668.5271903918715	538.351258469671	1247.7703815476577	3758.0284141574093	622.7186553159275	1315.97217818758	3615.2645914513573	558.7216288556241	1310.0945486083567	3673.9452955818915	520.8390345324264	1276.07310009992	3744.5425727744014	629.1720511550188	457.6504523443279	3514.041116743547	727.1295991539898	863.8447550429544	3545.6809389185423	738.208340856033	1229.8258986264646	3601.8404941664576	724.3763463047629	1304.3331420225024	3488.8996967334433	668.8931145336546	1264.4336306188782	3437.783174904099	702.0085971944842	1264.5625738662613	3610.084372223563	702.5161909534985	-113.1023247018897	3563.650998312854	643.4946558022227	-367.57371509385626	3486.2626338454584	608.2936788660803	-220.91408272172197	3443.397466338844	574.822355760553	-39.96359056002527	3740.019717131216	541.5076275854474	205.71262636135006	3659.0245597027647	425.4842374361042	359.9186856463406	3475.742494135918	497.1444833832243	447.4559748238572	3531.861340279415	612.7000823469699	454.4648703548861	3505.032733689137	610.305033121044	488.32544554664497	3490.0745670633355	585.2958472479035	-25.4686812794116	3507.1086376049075	784.4167798049182	217.44428863905276	3392.9169554225423	746.9824729159461	364.9783237806431	3403.8242725062914	586.766837794971	427.7682066978508	3452.5808585825066	505.04857557480017	445.1700680921828	3449.2764769117803	503.96588028367165	470.79967607409606	3444.0457552185603	566.5186701351934
278	4.633333333333334	467.9586192756066	3632.6206846057626	528.8406686301613	864.1241339983885	3668.1787294521155	538.1841945215606	1244.4241651108428	3750.119467479075	617.962656704779	1315.6231987006963	3615.3757454801575	558.5277739316343	1304.0801800646243	3671.619396198666	518.8772350235403	1276.0527833530712	3744.4647923441985	628.7530715099415	460.50777277676383	3533.8832687917134	733.04164941298	863.7025815835958	3545.55228181031	738.1265680992914	1229.9420506328715	3602.0355814203554	724.5245976308223	1311.7692939989172	3508.9226678860805	674.2637081987332	1264.5352669899057	3438.040122132738	702.0627799876075	1270.152236417822	3612.063099889286	704.0209503046912	-113.14562496564166	3563.5816839276513	643.4334051003785	-363.1408268535511	3482.9311727598215	606.4223785900539	-220.99151541182977	3443.652454890282	574.8448184019039	-39.96784808152788	3740.1772853604766	541.5520044718066	205.74326946459806	3659.123414212324	425.53259240440525	359.84960776347555	3475.511227018383	497.16765177492437	444.27990279899984	3535.9125358012498	614.82468566984	459.03103668124453	3508.428089884813	611.3572145213224	495.0486092959823	3524.86647047733	603.3952932391609	-25.485929808434022	3507.1203042937873	784.3969069144058	217.44262051944284	3392.7866245333457	746.980785274065	364.9737909948974	3403.640785458228	586.6783702755948	425.3571133418255	3447.842337017286	502.4020929099121	450.6249327178475	3452.0669756115353	504.677002183501	467.7350681169317	3424.4885142021726	560.9589326886693
279	4.65	468.004898247749	3632.6845168686577	528.9523212587112	864.8193941746558	3667.750666883526	543.7323907816191	1244.3646019782095	3749.915505355527	617.9766326647673	1315.6411479269993	3615.1565402301067	558.5352748983232	1303.9059296556252	3671.1986290868776	518.7981474147084	1278.1357242531606	3736.407632816445	630.0873774706071	457.5172587624623	3514.0689717462146	727.0790641322159	863.823450481593	3545.715756078485	738.1660118797816	1227.3866557191589	3607.133326801991	727.2831587381727	1309.6150841964136	3513.7687969350495	676.9619389186684	1264.5925902989566	3438.1198803761167	702.2150525979198	1264.6178744255474	3610.3428400654834	702.7010201630949	-113.18245468517665	3563.755104060073	643.5378021428338	-363.08155298170556	3483.043760208549	606.4659364044027	-225.5245769198653	3439.6780444586893	573.0331475439166	-40.01368242094972	3740.20155852969	541.6543695822264	201.66437990446622	3664.023612466823	427.77038922973844	359.9224246980847	3475.915241002743	497.2888516166368	444.3557581954005	3536.8521781673862	614.8947921676653	454.33024646863333	3506.6978346323717	610.562763519767	495.09066284454394	3525.652993050103	603.4968183200375	-29.968520757491987	3505.685192454064	783.7123354220508	219.475713754318	3407.222767649502	760.6063271214916	360.37389028577337	3402.2155188303677	585.7734682103613	422.81942884838264	3451.790662464399	504.3932277068714	444.7263811607048	3450.297493790327	499.6385100229603	467.57210054629417	3424.6951142648545	561.1096683727445
